<svg xmlns="http://www.w3.org/2000/svg" viewBox="0 -0.5 69 21" shape-rendering="crispEdges">
<metadata>Made with Pixels to Svg https://codepen.io/shshaw/pen/XbxvNj</metadata>
<path stroke="#1f0535" d="M9 0h1M17 0h2M20 0h2M7 1h2M19 1h1M22 1h1M6 2h1M19 2h1M23 2h1M5 3h1M19 3h1M24 3h1M4 4h1M20 4h1M25 4h1M4 5h1M20 5h1M25 5h1M4 6h1M19 6h1M25 6h1M4 7h1M19 7h1M2 8h3M14 8h5M20 8h1M1 9h1M4 9h1M14 9h1M21 9h1M0 10h1M4 10h1M12 10h2M22 10h1M0 11h1M4 11h2M11 11h2M17 11h1M23 11h1M1 12h1M5 12h1M10 12h1M12 12h1M17 12h1M23 12h1M58 12h1M2 13h1M6 13h4M12 13h1M17 13h1M22 13h2M53 13h1M58 13h1M3 14h1M6 14h2M22 14h2M53 14h1M58 14h1M4 15h1M7 15h2M22 15h1M3 16h1M8 16h2M22 16h1M2 17h1M6 17h2M9 17h1M22 17h1M3 18h1M5 18h1M7 18h1M9 18h1M22 18h1" />
<path stroke="#271807" d="M10 0h1M9 1h2M13 1h3M20 1h2M7 2h2M12 2h5M20 2h2M6 3h2M10 3h4M20 3h2M5 4h3M9 4h3M14 4h3M21 4h2M5 5h2M8 5h2M12 5h5M21 5h2M5 6h4M11 6h3M20 6h3M5 7h2M9 7h4M14 7h5M20 7h3M5 8h1M7 8h3M13 8h1M21 8h2M2 9h1M5 9h4M10 9h4M22 9h1M1 10h1M5 10h3M9 10h3M1 11h1M6 11h1M8 11h3M2 12h1M6 12h4M3 13h1M4 14h1M4 16h1M7 16h1M3 17h2" />
<path stroke="#35220f" d="M11 0h6M11 1h2M16 1h3M9 2h3M18 2h1M8 3h2M14 3h3M18 3h1M23 3h1M8 4h1M12 4h2M17 4h1M19 4h1M24 4h1M7 5h1M10 5h2M17 5h1M19 5h1M24 5h1M9 6h2M14 6h5M24 6h1M7 7h2M13 7h1M24 7h1M6 8h1M10 8h3M24 8h1M9 9h1M8 10h1M7 11h1" />
<path stroke="#222034" d="M50 0h1M56 0h4M29 1h12M50 1h1M60 1h2M28 2h1M41 2h1M49 2h1M62 2h1M27 3h1M42 3h1M47 3h2M63 3h2M26 4h1M43 4h1M47 4h1M64 4h1M26 5h1M43 5h1M47 5h1M64 5h1M26 6h1M43 6h1M46 6h2M64 6h2M25 7h2M43 7h2M46 7h1M65 7h1M25 8h1M44 8h3M65 8h1M24 9h2M44 9h3M65 9h2M24 10h2M44 10h3M65 10h2M24 11h2M44 11h3M65 11h2M24 12h3M30 12h3M37 12h3M43 12h4M65 12h2M25 13h3M29 13h1M33 13h1M36 13h1M40 13h1M42 13h1M44 13h1M46 13h2M64 13h2M25 14h2M28 14h2M33 14h4M40 14h2M43 14h2M47 14h2M63 14h2M26 15h2M29 15h1M33 15h1M36 15h1M40 15h1M42 15h2M47 15h2M63 15h2M26 16h2M30 16h3M37 16h3M42 16h2M62 16h2M27 17h2M41 17h2M60 17h4M26 18h5M39 18h5M54 18h6M61 18h1M63 18h1M26 19h1M28 19h1M41 19h1M43 19h1M27 20h1M42 20h1" />
<path stroke="#000000" d="M51 0h5M51 1h9M50 2h9M60 2h2M49 3h8M58 3h2M61 3h2M48 4h3M52 4h6M59 4h2M62 4h2M48 5h2M51 5h8M60 5h1M62 5h2M48 6h1M50 6h3M54 6h6M63 6h1M47 7h2M50 7h2M53 7h8M62 7h3M47 8h1M49 8h2M52 8h13M47 9h1M49 9h1M51 9h8M63 9h2M47 10h1M50 10h8M63 10h2M47 11h9M63 11h2M47 12h7M63 12h2M63 13h1M34 17h2" />
<path stroke="#2e1e0c" d="M17 2h1M22 2h1M17 3h1M22 3h1M18 4h1M23 4h1M18 5h1M23 5h1M23 6h1M23 7h1M23 8h1M3 9h1M23 9h1M2 10h1M23 10h1M2 11h1M3 12h1M4 13h2M5 14h1M5 16h1M5 17h1M4 18h1" />
<path stroke="#82571d" d="M29 2h12M27 6h1M42 6h1M27 7h1M42 7h1M26 8h2M42 8h2M26 9h1M43 9h1M28 16h1M33 16h1M36 16h1M41 16h1M40 17h1M31 18h3M36 18h3" />
<path stroke="#363533" d="M59 2h1M57 3h1M60 3h1M51 4h1M58 4h1M61 4h1M50 5h1M59 5h1M61 5h1M49 6h1M53 6h1M60 6h3M49 7h1M52 7h1M61 7h1M48 8h1M51 8h1M48 9h1M50 9h1M48 10h2" />
<path stroke="#8e6325" d="M28 3h14M27 4h3M32 4h3M36 4h7M27 5h2M33 5h1M37 5h6M28 6h1M33 6h2M36 6h6M28 7h2M32 7h10M28 8h14M28 9h14M26 10h1M28 10h8M37 10h5M43 10h1M26 11h1M43 11h1M43 13h1M27 14h1M42 14h1M28 15h1M41 15h1M29 16h1M34 16h2M40 16h1M29 17h5M36 17h4" />
<path stroke="#ce9e59" d="M30 4h2M35 4h1M29 5h4M34 5h3M29 6h4M35 6h1M30 7h2" />
<path stroke="#584731" d="M19 8h1M15 9h4M20 9h1M14 10h1M21 10h1M13 11h1M22 11h1M11 12h1M22 12h1M10 13h1M8 14h1" />
<path stroke="#816c4b" d="M19 9h1M15 10h4M14 11h3M13 12h4M18 12h2M11 13h1M18 13h2M9 15h1" />
<path stroke="#bd785a" d="M27 9h1M42 9h1M27 10h1M42 10h1M27 11h1M42 11h1M27 12h1M42 12h1M28 13h1M41 13h1" />
<path stroke="#cab381" d="M59 9h4M58 10h1M62 10h1M56 11h2M62 11h1M54 12h2M62 12h1M48 13h4M62 13h1M62 14h1M62 15h1" />
<path stroke="#382209" d="M3 10h1M3 11h1M4 12h1M5 15h2M6 16h1" />
<path stroke="#7d6443" d="M19 10h2M18 11h3M20 12h1M13 13h4M20 13h1M8 17h1M8 18h1" />
<path stroke="#e5916c" d="M36 10h1M29 11h7M37 11h4M34 13h2M34 15h2" />
<path stroke="#f7db9d" d="M59 10h3M60 11h2M59 12h3M52 13h1M54 13h2M59 13h3M50 14h3M54 14h1M57 14h1M59 14h3M50 15h2M56 15h3M60 15h2M53 16h2M57 16h4M54 17h1M57 17h3M62 18h1" />
<path stroke="#6c583e" d="M21 11h1M21 12h1M21 13h1M21 14h1" />
<path stroke="#f4a37a" d="M28 11h1M36 11h1M41 11h1M28 12h2M33 12h4M40 12h2M27 19h1M42 19h1" />
<path stroke="#ffe6af" d="M58 11h2M56 12h2M56 13h2M49 14h1M55 14h2M49 15h1M52 15h4M59 15h1M61 16h1M55 17h2" />
<path stroke="#fdfeff" d="M30 13h2M37 13h2M30 14h1M37 14h1" />
<path stroke="#d5e3f7" d="M32 13h1M39 13h1M31 14h2M38 14h2M30 15h3M37 15h3" />
<path stroke="#c0878d" d="M9 14h2" />
<path stroke="#101016" d="M11 14h10M10 15h1M21 15h1M10 16h1M21 16h1M44 16h9M10 17h1M21 17h1M53 17h1M10 18h1M21 18h1M53 18h1" />
<path stroke="#586366" d="M11 15h10M11 16h10M11 17h4M17 17h4M11 18h10" />
<path stroke="#8b1c62" d="M55 16h2" />
<path stroke="#515e62" d="M15 17h2" />
<path stroke="#0f414c" d="M43 17h2" />
<path stroke="#052128" d="M45 17h8M44 18h9" />
<path stroke="#442b06" d="M34 18h2" />
<path stroke="#73abca" d="M60 18h1" />
<path stroke="#121318" d="M0 19h26M29 19h12M44 19h25M0 20h27M28 20h14M43 20h26" />
</svg>